<svg width="20" height="22" viewBox="0 0 20 22" fill="none" xmlns="http://www.w3.org/2000/svg">
<path d="M1.74947 19.555C2.94831 21 5.17816 21 9.63985 21H10.3592C14.8208 21 17.0517 21 18.2505 19.555M1.74947 19.555C0.550626 18.109 0.962228 15.915 1.78443 11.525C2.36887 8.405 2.66059 6.844 3.77052 5.922M18.2505 19.555C19.4494 18.109 19.0378 15.915 18.2156 11.525C17.6311 8.405 17.3384 6.844 16.2285 5.922M16.2285 5.922C15.1196 5 13.5321 5 10.3602 5H9.63885C6.46691 5 4.88044 5 3.77052 5.922" stroke="white" stroke-width="1.5"/>
<path d="M12.9972 10L13.9962 16M7.00294 10L6.00391 16M7.00294 5V4C7.00294 3.20435 7.31871 2.44129 7.88077 1.87868C8.44284 1.31607 9.20517 1 10 1C10.7949 1 11.5573 1.31607 12.1193 1.87868C12.6814 2.44129 12.9972 3.20435 12.9972 4V5" stroke="white" stroke-width="1.5" stroke-linecap="round"/>
</svg>
