<svg width="12" height="10" viewBox="0 0 12 10" fill="none" xmlns="http://www.w3.org/2000/svg">
<path d="M11.378 0.740769C11.585 0.94896 11.7057 1.23609 11.7138 1.53902C11.7218 1.84195 11.6165 2.13588 11.421 2.35619L5.33516 9.21413C5.23653 9.32508 5.118 9.41386 4.98658 9.47523C4.85516 9.53661 4.71352 9.56933 4.57002 9.57146C4.42652 9.57359 4.28407 9.54509 4.15109 9.48764C4.01812 9.43019 3.89731 9.34496 3.7958 9.23699L0.573887 5.80802C0.38418 5.59135 0.280903 5.30477 0.285812 5.00866C0.290721 4.71254 0.403434 4.43002 0.600204 4.2206C0.796974 4.01119 1.06244 3.89123 1.34067 3.88601C1.6189 3.88078 1.88818 3.9907 2.09177 4.1926L4.53326 6.78947L9.86016 0.786489C10.0558 0.566269 10.3256 0.437742 10.6102 0.429169C10.8948 0.420595 11.171 0.532677 11.378 0.740769Z" fill="white"/>
</svg>
