<svg width="15" height="14" viewBox="0 0 15 14" fill="none" xmlns="http://www.w3.org/2000/svg">
<path d="M7.84519 8.58889V6.66313H14.335C14.3607 7.65168 14.2323 8.58889 13.9499 9.47474C13.6674 10.3477 13.2437 11.1245 12.6789 11.8049C12.114 12.4853 11.4078 13.0246 10.5605 13.4225C9.72602 13.8077 8.77598 14.0003 7.71039 14.0003C6.69616 14.0003 5.75895 13.8334 4.89878 13.4996C4.03861 13.1529 3.28756 12.6651 2.64564 12.036C2.01656 11.4069 1.5287 10.6623 1.18206 9.80212C0.835428 8.94194 0.662109 7.99832 0.662109 6.97125C0.662109 5.94418 0.835428 5.00697 1.18206 4.15964C1.54154 3.29947 2.03582 2.56126 2.6649 1.94502C3.30682 1.31594 4.05787 0.834495 4.91804 0.500697C5.79105 0.166899 6.73467 0 7.7489 0C8.63475 0 9.43715 0.121965 10.1561 0.365894C10.8751 0.596985 11.517 0.937203 12.0819 1.38655C12.6596 1.82305 13.1475 2.35585 13.5454 2.98493L11.6967 4.21741C11.3244 3.57549 10.8044 3.06196 10.1368 2.67681C9.48209 2.29165 8.68611 2.09908 7.7489 2.09908C6.87589 2.09908 6.08633 2.30449 5.38022 2.71532C4.67411 3.11331 4.10922 3.6782 3.68555 4.40999C3.26188 5.12894 3.05005 5.98269 3.05005 6.97125C3.05005 7.94697 3.25547 8.80714 3.66629 9.55177C4.08996 10.2836 4.65485 10.8549 5.36096 11.2657C6.06707 11.6765 6.86306 11.8819 7.7489 11.8819C8.35231 11.8819 8.89152 11.7985 9.36654 11.6316C9.84156 11.4647 10.2524 11.2272 10.599 10.9191C10.9457 10.6109 11.2345 10.2579 11.4656 9.85989C11.6967 9.4619 11.87 9.03823 11.9856 8.58889H7.84519Z" fill="#2C6FBE"/>
</svg>
