<svg width="16" height="19" viewBox="0 0 16 19" fill="none" xmlns="http://www.w3.org/2000/svg">
<path d="M1.39938 16.3442C2.35845 17.5002 4.14233 17.5002 7.71168 17.5002H8.28713C11.8565 17.5002 13.6412 17.5002 14.6002 16.3442M1.39938 16.3442C0.440305 15.1874 0.769587 13.4322 1.42735 9.9202C1.8949 7.4242 2.12827 6.1754 3.01622 5.4378M14.6002 16.3442C15.5593 15.1874 15.23 13.4322 14.5723 9.9202C14.1047 7.4242 13.8705 6.1754 12.9826 5.4378M12.9826 5.4378C12.0954 4.7002 10.8255 4.7002 8.28793 4.7002H7.71088C5.17333 4.7002 3.90416 4.7002 3.01622 5.4378" stroke="#FF5F5F" stroke-width="1.2"/>
<path d="M10.3973 8.7L11.1966 13.5M5.60196 8.7L4.80273 13.5M5.60196 4.7V3.9C5.60196 3.26348 5.85457 2.65303 6.30423 2.20294C6.75388 1.75286 7.36374 1.5 7.99965 1.5C8.63555 1.5 9.24541 1.75286 9.69507 2.20294C10.1447 2.65303 10.3973 3.26348 10.3973 3.9V4.7" stroke="#FF5F5F" stroke-width="1.2" stroke-linecap="round"/>
</svg>
