<svg width="24" height="24" viewBox="0 0 24 24" fill="none" xmlns="http://www.w3.org/2000/svg">
<path d="M12 2C6.4775 2 2 6.4775 2 12C2 17.5225 6.4775 22 12 22C17.5225 22 22 17.5225 22 12C22 6.4775 17.5225 2 12 2ZM16.9117 8.85083L15.27 16.5842C15.1492 17.1325 14.8225 17.2658 14.3667 17.0075L11.8667 15.1658L10.6617 16.3275C10.6026 16.4039 10.5268 16.4657 10.4402 16.5084C10.3535 16.551 10.2582 16.5732 10.1617 16.5733H10.1575L10.335 14.0283L14.9683 9.84333C15.1683 9.66583 14.9233 9.565 14.6575 9.7425L8.93333 13.3475L6.46667 12.5775C5.93333 12.4083 5.91833 12.0442 6.57917 11.7825L16.2175 8.0675C16.6658 7.90417 17.0558 8.17417 16.9108 8.85167L16.9117 8.85083Z" fill="#D9D9D9"/>
</svg>
