<svg width="59" height="59" viewBox="0 0 59 59" fill="none" xmlns="http://www.w3.org/2000/svg">
<rect width="59" height="59" rx="29.5" fill="#249FFC"/>
<rect x="8" y="22.8608" width="2.74508" height="8.12473" fill="white"/>
<path d="M20.7041 22.8696L20.7041 23.1878C20.7041 24.6257 19.5385 25.7913 18.1006 25.7913L10.6056 25.7913L10.6056 22.8696L20.7041 22.8696Z" fill="white"/>
<path d="M35.6123 22.8608L35.6123 23.1823C35.6123 24.6201 34.4467 25.7857 33.0088 25.7857L23.0172 25.7857L23.0172 22.8608L35.6123 22.8608Z" fill="white"/>
<path d="M20.7041 23.188C20.7041 24.6259 19.5385 25.7915 18.1006 25.7915L17.7723 25.7915L17.7723 18.0004L18.1006 18.0004C19.5385 18.0004 20.7041 19.166 20.7041 20.6039L20.7041 23.188Z" fill="white"/>
<path d="M35.6895 23.188C35.6895 24.6259 34.5238 25.7915 33.086 25.7915L32.7576 25.7915L32.7576 18.0004L33.086 18.0004C34.5238 18.0004 35.6895 19.166 35.6895 20.6039L35.6895 23.188Z" fill="white"/>
<rect x="8" y="20.9219" width="2.92167" height="9.77271" transform="rotate(-90 8 20.9219)" fill="white"/>
<rect x="22.9844" y="20.9219" width="2.92167" height="9.77271" transform="rotate(-90 22.9844 20.9219)" fill="white"/>
<rect x="25.6006" y="30.9854" width="2.58361" height="8.12473" transform="rotate(180 25.6006 30.9854)" fill="white"/>
<path d="M48.0669 18H48.3952C49.8331 18 50.9987 19.1656 50.9987 20.6035V28.3817C50.9987 29.8196 49.8331 30.9852 48.3952 30.9852H48.0669V18Z" fill="white"/>
<path d="M38.2944 20.9219L38.2944 20.6037C38.2944 19.1658 39.4601 18.0002 40.8979 18.0002L48.3955 18.0002C49.8333 18.0002 50.999 19.1658 50.999 20.6037L50.999 20.9219L38.2944 20.9219Z" fill="white"/>
<path d="M38.2944 28.0635L38.2944 28.3817C38.2944 29.8195 39.4601 30.9851 40.8979 30.9851L48.3955 30.9851C49.8333 30.9851 50.999 29.8195 50.999 28.3817L50.999 28.0635L38.2944 28.0635Z" fill="white"/>
<rect x="40.9009" y="28.0635" width="2.60606" height="5.19408" transform="rotate(180 40.9009 28.0635)" fill="white"/>
<path d="M35.9351 30.9854L33.19 30.9854L30.4449 25.623L33.19 25.623L35.9351 30.9854Z" fill="white"/>
<path d="M22.686 34.4644H22.8787C23.7226 34.4644 24.4068 35.1485 24.4068 35.9924V40.4723C24.4068 41.3163 23.7226 42.0004 22.8787 42.0004H22.686V34.4644Z" fill="white"/>
<path d="M16.9502 36.1602L16.9502 35.9926C16.9502 35.1487 17.6343 34.4645 18.4782 34.4645L22.8787 34.4645C23.7226 34.4645 24.4067 35.1487 24.4067 35.9926L24.4067 36.1602L16.9502 36.1602Z" fill="white"/>
<path d="M16.9502 40.3047L16.9502 40.4723C16.9502 41.3162 17.6343 42.0003 18.4782 42.0003L22.8787 42.0003C23.7226 42.0003 24.4067 41.3162 24.4067 40.4723L24.4067 40.3047L16.9502 40.3047Z" fill="white"/>
<rect x="18.48" y="40.3047" width="1.52955" height="3.01441" transform="rotate(180 18.48 40.3047)" fill="white"/>
<path d="M31.4814 34.4644H33.2022V40.4723C33.2022 41.3162 32.5181 42.0003 31.6741 42.0003H31.4814V34.4644Z" fill="white"/>
<path d="M25.7451 40.3047L25.7451 40.4722C25.7451 41.3161 26.4292 42.0003 27.2732 42.0003L31.6736 42.0003C32.5175 42.0003 33.2017 41.3161 33.2017 40.4722L33.2017 40.3047L25.7451 40.3047Z" fill="white"/>
<path d="M27.4663 42.0005L27.2736 42.0005C26.4297 42.0005 25.7456 41.3164 25.7456 40.4724L25.7456 34.4645L27.4663 34.4645L27.4663 42.0005Z" fill="white"/>
<rect x="12.5444" y="42.0005" width="1.5149" height="6.14481" transform="rotate(180 12.5444 42.0005)" fill="white"/>
<rect x="15.6084" y="34.4644" width="1.49264" height="7.6088" transform="rotate(90 15.6084 34.4644)" fill="white"/>
<path d="M42.188 36.2031L42.188 34.464L36.258 34.464C35.4141 34.464 34.73 35.1482 34.73 35.9921L34.73 36.2031L42.188 36.2031Z" fill="white"/>
<path d="M45.2891 36.2031L45.2891 34.464L43.5411 34.464L43.5411 36.2031L45.2891 36.2031Z" fill="white"/>
<path d="M50.9995 36.2031L50.9995 34.464L49.2515 34.464L49.2515 36.2031L50.9995 36.2031Z" fill="white"/>
<path d="M50.9995 42.0005L50.9995 37.3121L49.2928 37.3121L49.2928 42.0005L50.9995 42.0005Z" fill="white"/>
<path d="M43.5874 39L50.8882 39L50.8882 37.3122L43.5874 37.3122L43.5874 39Z" fill="white"/>
<path d="M43.5093 37.312L43.5093 42.0004L45.3108 42.0004L45.3108 37.312L43.5093 37.312Z" fill="white"/>
<path d="M36.478 37.2466L34.7301 37.2466L34.7301 40.2402C34.7301 41.0841 35.4142 41.7682 36.2581 41.7682L36.478 41.7682L36.478 37.2466Z" fill="white"/>
<path d="M42.188 42L42.188 40.2609L34.73 40.2609L34.73 40.472C34.73 41.3159 35.4141 42 36.258 42L42.188 42Z" fill="white"/>
</svg>
